<?xml version="1.0" encoding="UTF-8"?>
<svg width="54px" height="33px" viewBox="0 0 54 33" version="1.1" xmlns="http://www.w3.org/2000/svg" xmlns:xlink="http://www.w3.org/1999/xlink">
    <!-- Generator: sketchtool 41.1 (35376) - http://www.bohemiancoding.com/sketch -->
    <title>64223D77-4833-4B88-BE37-0B96AF585F7B</title>
    <desc>Created with sketchtool.</desc>
    <defs>
        <rect id="path-1" x="0" y="0" width="54" height="33" rx="4"></rect>
        <mask id="mask-2" maskContentUnits="userSpaceOnUse" maskUnits="objectBoundingBox" x="0" y="0" width="54" height="33" fill="white">
            <use xlink:href="#path-1"></use>
        </mask>
    </defs>
    <g id="Symbols" stroke="none" stroke-width="1" fill="none" fill-rule="evenodd">
        <g id="footer" transform="translate(-933.000000, -107.000000)">
            <g id="support-connect-appdownload">
                <g>
                    <g id="Group-24">
                        <g id="ic_cash" transform="translate(933.000000, 107.000000)">
                            <use id="Rectangle-14-Copy-4" stroke="#E4E4E4" mask="url(#mask-2)" stroke-width="2" fill="#F3F3F3" xlink:href="#path-1"></use>
                            <g id="Group-2" transform="translate(17.000000, 3.000000)">
                                <g id="Group">
                                    <g id="#979797ff" fill="#979797">
                                        <path d="M1.99796954,0 L20,0 L20,9.99857422 C19.3319797,10.0102539 18.663198,10.0000977 17.9949239,10.0036523 L17.9949239,13 L0,13 L0,1.99875 L1.99796954,1.99875 L1.99796954,0 L1.99796954,0 Z M2.99923858,0.999882812 C2.99847716,1.33173828 2.99898477,1.66384766 2.99898477,1.99570312 C6.69517766,1.9946875 10.3913706,1.99544922 14.0878173,1.99519531 C15.3893401,2.00001953 16.6911168,2.00078125 17.9928934,2.00027344 C17.9923858,4.33341797 17.9961929,6.6665625 17.9949239,8.99970703 C18.3274112,9.00021484 18.6598985,9.00021484 18.9923858,8.99970703 C18.9936548,6.33394531 18.9911168,3.66818359 18.9936548,1.00242187 C17.942132,0.996835937 16.8903553,1.00166016 15.8388325,0.999882812 C11.5588832,0.999882812 7.27893401,1.00013672 2.99923858,0.999882812 L2.99923858,0.999882812 Z M0.999492386,3.00041016 C1,3.60978516 0.999238579,4.21941406 1,4.82904297 C1.84213198,4.53273438 2.53020305,3.84134766 2.82893401,3.00041016 C2.21928934,2.99964844 1.60939086,2.99990234 0.999492386,3.00041016 L0.999492386,3.00041016 Z M3.8713198,3.00117187 C3.70634518,3.64380859 3.37664975,4.24251953 2.92411168,4.72722656 C2.40862944,5.28201172 1.73274112,5.68470703 0.999746193,5.87386719 C0.999746193,6.95804688 0.998984772,8.04197266 1,9.12615234 C1.63502538,9.2909375 2.22817259,9.61390625 2.70964467,10.0595117 C3.27284264,10.5769727 3.68121827,11.2592188 3.87258883,11.9996094 C7.28857868,12.0001172 10.7045685,12.0003711 14.1208122,11.9996094 C14.2840102,11.3691602 14.6030457,10.7798438 15.0436548,10.3004688 C15.5619289,9.73121094 16.2479695,9.31861328 16.9931472,9.12615234 C16.9936548,8.04222656 16.993401,6.95830078 16.993401,5.874375 C16.4294416,5.72685547 15.8977157,5.45746094 15.4489848,5.08498047 C14.8025381,4.55304687 14.328934,3.81341797 14.1220812,3.00167969 C10.7050761,2.99863281 7.28832487,2.99964844 3.8713198,3.00117187 L3.8713198,3.00117187 Z M15.1649746,2.99990234 C15.4614213,3.84083984 16.1505076,4.53451172 16.993401,4.82726563 C16.993401,4.21839844 16.9931472,3.60927734 16.993401,3.00041016 C16.3840102,2.99939453 15.7743655,3.00041016 15.1649746,2.99990234 L15.1649746,2.99990234 Z M0.999746193,11.9998633 C1.60939086,11.9996094 2.21903553,12.0011328 2.82893401,11.9991016 C2.53045685,11.1576563 1.84137056,10.4683008 1.00025381,10.1699609 C0.998984772,10.7800977 0.999746193,11.3899805 0.999746193,11.9998633 L0.999746193,11.9998633 Z M15.1639594,11.9998633 C15.7738579,12.0001172 16.3835025,12.0001172 16.9931472,11.9996094 C16.993401,11.3909961 16.993401,10.7821289 16.9931472,10.1735156 C16.1494924,10.4644922 15.4629442,11.1604492 15.1639594,11.9998633 Z" id="Shape"></path>
                                        <path d="M8.68375635,4.01958984 C9.28274112,3.94417969 9.90228426,4.09169922 10.4114213,4.41390625 C10.9895939,4.77369141 11.4215736,5.33583984 11.6883249,5.95689453 C12.0982234,6.93291016 12.0972081,8.07421875 11.6857868,9.04947266 C11.5121827,9.44886719 11.2736041,9.82160156 10.969797,10.1344141 C10.607868,10.5061328 10.1489848,10.7884766 9.64467005,10.917207 C9.09898477,11.0591406 8.50812183,11.0152148 7.98857868,10.7966016 C7.43527919,10.5673242 6.96878173,10.1544727 6.63832487,9.65808594 C5.81243655,8.43298828 5.78426396,6.72623047 6.55685279,5.46914063 C6.88527919,4.9278125 7.36725888,4.47128906 7.95177665,4.21890625 C8.18451777,4.11785156 8.43172589,4.05005859 8.68375635,4.01958984 L8.68375635,4.01958984 Z M8.76903553,5.01693359 C8.41370558,5.07076172 8.08248731,5.24417969 7.81954315,5.48691406 C7.4535533,5.82232422 7.20913706,6.27707031 7.08908629,6.7559375 C6.93096447,7.39730469 6.9784264,8.0925 7.24467005,8.69857422 C7.42411168,9.10457031 7.70659898,9.47248047 8.08096447,9.71623047 C8.37715736,9.90970703 8.73324873,10.0199023 9.08857868,9.99679688 C9.51725888,9.97191406 9.9213198,9.76345703 10.2243655,9.46486328 C10.6279188,9.07003906 10.8720812,8.53099609 10.9576142,7.97697266 C11.0525381,7.35388672 10.963198,6.69677734 10.6687817,6.13666016 C10.4682741,5.75529297 10.1690355,5.41810547 9.78857868,5.21015625 C9.48045685,5.04003906 9.11852792,4.96335938 8.76903553,5.01693359 Z" id="Shape"></path>
                                    </g>
                                    <g id="#f2f2f2ff" transform="translate(0.989848, 0.990234)" fill="#F2F2F2">
                                        <path d="M2.00939086,0.0096484375 C6.28908629,0.00990234375 10.5690355,0.0096484375 14.8489848,0.0096484375 C15.9005076,0.0114257813 16.9522843,0.0066015625 18.0038071,0.0121875 C18.001269,2.67794922 18.0038071,5.34371094 18.0025381,8.00947266 C17.6700508,8.00998047 17.3375635,8.00998047 17.0050761,8.00947266 C17.0063452,5.67632812 17.0025381,3.34318359 17.0030457,1.01003906 C15.701269,1.01054687 14.3994924,1.00978516 13.0979695,1.00496094 C9.40152284,1.00521484 5.70532995,1.00445313 2.00913706,1.00546875 C2.00913706,0.673613281 2.00862944,0.341503906 2.00939086,0.0096484375 Z" id="Shape"></path>
                                        <path d="M0.00964467005,2.01017578 C0.619543147,2.00966797 1.22944162,2.00941406 1.83908629,2.01017578 C1.54035533,2.85111328 0.852284264,3.5425 0.0101522843,3.83880859 C0.00939086294,3.22917969 0.0101522843,2.61955078 0.00964467005,2.01017578 Z" id="Shape"></path>
                                        <path d="M2.88147208,2.0109375 C6.29847716,2.00941406 9.71522843,2.00839844 13.1322335,2.01144531 C13.3390863,2.82318359 13.8126904,3.5628125 14.4591371,4.09474609 C14.907868,4.46722656 15.4395939,4.73662109 16.0035533,4.88414062 C16.0035533,5.96806641 16.0038071,7.05199219 16.0032995,8.13591797 C15.2581218,8.32837891 14.5720812,8.74097656 14.0538071,9.31023438 C13.613198,9.78960937 13.2941624,10.3789258 13.1309645,11.009375 C9.71472081,11.0101367 6.29873096,11.0098828 2.88274112,11.009375 C2.69137056,10.2689844 2.28299492,9.58673828 1.71979695,9.06927734 C1.23832487,8.62367187 0.645177665,8.30070312 0.0101522843,8.13591797 C0.00913705584,7.05173828 0.00989847716,5.9678125 0.00989847716,4.88363281 C0.742893401,4.69447266 1.41878173,4.29177734 1.93426396,3.73699219 C2.38680203,3.25228516 2.71649746,2.65357422 2.88147208,2.0109375 L2.88147208,2.0109375 Z M7.69390863,3.02935547 C7.44187817,3.05982422 7.19467005,3.12761719 6.96192893,3.22867187 C6.37741117,3.48105469 5.89543147,3.93757812 5.56700508,4.47890625 C4.79441624,5.73599609 4.82258883,7.44275391 5.64847716,8.66785156 C5.97893401,9.16423828 6.44543147,9.57708984 6.99873096,9.80636719 C7.51827411,10.0249805 8.10913706,10.0689063 8.65482234,9.92697266 C9.15913706,9.79824219 9.6180203,9.51589844 9.97994924,9.14417969 C10.2837563,8.83136719 10.522335,8.45863281 10.6959391,8.05923828 C11.1073604,7.08398437 11.1083756,5.94267578 10.6984772,4.96666016 C10.4317259,4.34560547 9.99974619,3.78345703 9.4215736,3.42367187 C8.91243655,3.10146484 8.2928934,2.95394531 7.69390863,3.02935547 Z" id="Shape"></path>
                                        <path d="M14.1751269,2.00966797 C14.7845178,2.01017578 15.3941624,2.00916016 16.0035533,2.01017578 C16.0032995,2.61904297 16.0035533,3.22816406 16.0035533,3.83703125 C15.1606599,3.54427734 14.4715736,2.85060547 14.1751269,2.00966797 Z" id="Shape"></path>
                                        <path d="M7.77918782,4.02669922 C8.1286802,3.973125 8.49060914,4.04980469 8.79873096,4.21992188 C9.17918782,4.42787109 9.4784264,4.76505859 9.67893401,5.14642578 C9.97335025,5.70654297 10.0626904,6.36365234 9.9677665,6.98673828 C9.8822335,7.54076172 9.63807107,8.07980469 9.23451777,8.47462891 C8.93147208,8.77322266 8.52741117,8.98167969 8.09873096,9.0065625 C7.74340102,9.02966797 7.38730964,8.91947266 7.09111675,8.72599609 C6.71675127,8.48224609 6.43426396,8.11433594 6.25482234,7.70833984 C5.98857868,7.10226563 5.94111675,6.40707031 6.09923858,5.76570313 C6.21928934,5.28683594 6.46370558,4.83208984 6.82969543,4.49667969 C7.09263959,4.25394531 7.42385787,4.08052734 7.77918782,4.02669922 Z" id="Shape"></path>
                                        <path d="M0.00989847716,11.0096289 C0.00989847716,10.3997461 0.00913705584,9.78986328 0.0104060914,9.17972656 C0.851522843,9.47806641 1.54060914,10.1674219 1.83908629,11.0088672 C1.22918782,11.0108984 0.619543147,11.009375 0.00989847716,11.0096289 Z" id="Shape"></path>
                                        <path d="M14.1741117,11.0096289 C14.4730964,10.1702148 15.1596447,9.47425781 16.0032995,9.18328125 C16.0035533,9.79189453 16.0035533,10.4007617 16.0032995,11.009375 C15.3936548,11.0098828 14.7840102,11.0098828 14.1741117,11.0096289 Z" id="Shape"></path>
                                    </g>
                                </g>
                            </g>
                            <path d="M9.24316406,28 L9.24316406,22.3706055 L11.2866211,22.3706055 L11.2866211,21.6586914 L6.40869141,21.6586914 L6.40869141,22.3706055 L8.45214844,22.3706055 L8.45214844,28 L9.24316406,28 Z M13.2993164,28 L13.2993164,21.6586914 L12.5083008,21.6586914 L12.5083008,28 L13.2993164,28 Z M18.8452148,27.2880859 L15.7075195,27.2880859 L15.7075195,25.1083984 L18.6826172,25.1083984 L18.6826172,24.4052734 L15.7075195,24.4052734 L15.7075195,22.3706055 L18.8452148,22.3706055 L18.8452148,21.6586914 L14.9165039,21.6586914 L14.9165039,28 L18.8452148,28 L18.8452148,27.2880859 Z M16.4545898,20.0546875 L15.1625977,21.0786133 L16.1381836,21.0786133 L16.8500977,20.4853516 L16.9204102,20.4853516 L17.6323242,21.0786133 L18.6079102,21.0786133 L17.315918,20.0546875 L16.4545898,20.0546875 Z M18.7924805,19.8569336 L17.8256836,18.793457 L16.8764648,18.793457 L17.9575195,19.8569336 L18.7924805,19.8569336 Z M21.0600586,28 L21.0600586,23.0825195 L21.1303711,23.0825195 L24.5712891,28 L25.340332,28 L25.340332,21.6586914 L24.5581055,21.6586914 L24.5581055,26.59375 L24.487793,26.59375 L21.046875,21.6586914 L20.277832,21.6586914 L20.277832,28 L21.0600586,28 Z M35.746582,28 L35.746582,21.6586914 L34.828125,21.6586914 L32.6572266,26.9057617 L32.5869141,26.9057617 L30.4160156,21.6586914 L29.4975586,21.6586914 L29.4975586,28 L30.2358398,28 L30.2358398,23.1572266 L30.2885742,23.1572266 L32.2880859,27.9560547 L32.9560547,27.9560547 L34.9555664,23.1572266 L35.0083008,23.1572266 L35.0083008,28 L35.746582,28 Z M41.4858398,28 L42.3164062,28 L39.9785156,21.6586914 L39.1962891,21.6586914 L36.8583984,28 L37.6889648,28 L38.3261719,26.1850586 L40.8486328,26.1850586 L40.9453125,26.4597168 C41.0097659,26.6428232 41.0837398,26.8537586 41.1672363,27.0925293 C41.2507328,27.3313 41.3247067,27.5422354 41.3891602,27.7253418 L41.4858398,28 Z M39.5522461,22.6826172 L39.6225586,22.6826172 L40.6157227,25.5126953 L38.559082,25.5126953 L38.6601562,25.2270508 C38.7275394,25.0366201 38.8103022,24.8007827 38.9084473,24.5195312 L39.2028809,23.6757812 C39.3010259,23.3945298 39.3837887,23.1586924 39.4511719,22.9682617 L39.5522461,22.6826172 Z M37.987793,19.769043 C37.987793,20.1616231 38.1306138,20.4780261 38.4162598,20.7182617 C38.7019057,20.9584973 39.0922827,21.0786133 39.5874023,21.0786133 C40.0854517,21.0786133 40.4765611,20.9584973 40.7607422,20.7182617 C41.0449233,20.4780261 41.1870117,20.1616231 41.1870117,19.769043 L40.5102539,19.769043 C40.5102539,20.0004894 40.4282235,20.1850579 40.2641602,20.3227539 C40.1000968,20.4604499 39.8745132,20.5292969 39.5874023,20.5292969 C39.3032212,20.5292969 39.07837,20.4604499 38.9128418,20.3227539 C38.7473136,20.1850579 38.6645508,20.0004894 38.6645508,19.769043 L37.987793,19.769043 Z M39.5874023,29.7666016 C39.7338875,29.7666016 39.8591303,29.7146001 39.9631348,29.6105957 C40.0671392,29.5065913 40.1191406,29.3813484 40.1191406,29.2348633 C40.1191406,29.0883782 40.0671392,28.9631353 39.9631348,28.8591309 C39.8591303,28.7551264 39.7338875,28.703125 39.5874023,28.703125 C39.4409172,28.703125 39.3156743,28.7551264 39.2116699,28.8591309 C39.1076655,28.9631353 39.0556641,29.0883782 39.0556641,29.2348633 C39.0556641,29.3813484 39.1076655,29.5065913 39.2116699,29.6105957 C39.3156743,29.7146001 39.4409172,29.7666016 39.5874023,29.7666016 Z M45.8671875,28 L45.8671875,22.3706055 L47.9106445,22.3706055 L47.9106445,21.6586914 L43.0327148,21.6586914 L43.0327148,22.3706055 L45.0761719,22.3706055 L45.0761719,28 L45.8671875,28 Z" id="TIỀN-MẶT" fill="#333333"></path>
                        </g>
                    </g>
                </g>
            </g>
        </g>
    </g>
</svg>