<?xml version="1.0" encoding="UTF-8"?>
<svg width="32px" height="32px" viewBox="0 0 32 32" version="1.1" xmlns="http://www.w3.org/2000/svg" xmlns:xlink="http://www.w3.org/1999/xlink">
    <!-- Generator: sketchtool 41.2 (35397) - http://www.bohemiancoding.com/sketch -->
    <title>D25F8BCD-E811-476A-A2AB-5F6392AD7AAF</title>
    <desc>Created with sketchtool.</desc>
    <defs></defs>
    <g id="Symbols" stroke="none" stroke-width="1" fill="none" fill-rule="evenodd">
        <g id="ic_fb">
            <g>
                <rect id="bound" x="0" y="0" width="32" height="32"></rect>
                <path d="M20.4465343,5 L20.4465343,8.50476472 L18.5371284,8.50476472 C17.9844029,8.50476472 17.6159248,8.65969303 17.4316829,8.96955431 C17.3144381,9.15379614 17.2558166,9.50133804 17.2558166,10.0121904 L17.2558166,11.6075493 L20.4967818,11.6075493 L20.1073635,15.1374377 L17.2558166,15.1374377 L17.2558166,25.2999992 L13.0601484,25.2999992 L13.0601484,15.1374377 L11,15.1374377 L11,11.6075493 L13.0601484,11.6075493 L13.0601484,9.50971518 C13.0601484,7.34068626 13.7971047,5.9588932 15.2710394,5.36429454 C15.8823874,5.1214303 16.5439731,5 17.2558166,5 L20.4465343,5 Z" id="f" fill="#3B5998"></path>
            </g>
        </g>
    </g>
</svg>