<?xml version="1.0" encoding="utf-8"?>
<!-- Generator: Adobe Illustrator 21.0.0, SVG Export Plug-In . SVG Version: 6.00 Build 0)  -->
<svg version="1.1" id="Layer_1" xmlns="http://www.w3.org/2000/svg" xmlns:xlink="http://www.w3.org/1999/xlink" x="0px" y="0px"
	 viewBox="0 0 100 100" style="enable-background:new 0 0 100 100;" xml:space="preserve">
<g>
	<g>
		<path d="M18.2,0h2.2c3.6,0.9,5,4.7,7.1,7.4C31,13,35.1,18.2,38.1,24.1c0.7,5.9-4.1,10.4-6.3,15.5C40.1,50.2,49.8,60,60.5,68.2
			c5-2.3,9.5-7,15.4-6.3c5,2.5,9.4,6.1,14.2,9.1c3.4,2.5,7.7,4.1,9.9,7.9V82c-1.2,3.5-3.7,6.2-6.1,8.9c-3.1,3.5-6.4,7-10.7,9h-2.7
			c-8.7-0.9-16.7-4.9-23.9-9.6C43,81.4,31.2,69.8,20.4,57.6c-9.2-11-18.5-23.3-20.4-38v-2.7c1.9-4.4,5.5-7.6,9-10.8
			C11.8,3.7,14.6,0.9,18.2,0z M14,7c-3.6,3.3-7.9,6.3-10,10.9c0.7,12.4,8.3,23,15.6,32.5C29,62,39.7,72.6,51.3,81.8
			c7.8,5.9,16.3,11.5,26,13.7c2,0.2,4.2,1.2,6-0.1c4.4-2.9,7.7-7.1,10.9-11.2c1.1-1.2,1.6-2.8,1.8-4.3c-7-4.9-14.1-9.6-21.2-14.1
			c-5.4,0.7-9.6,4.9-14.5,7.1C52.4,67.5,45.5,60.9,39,54c-4.2-4.5-8.4-9.2-11.8-14.4c2.2-4.3,5-8.3,6.9-12.8c0.9-2-0.9-3.5-1.8-5.1
			C28.2,16,24.6,10,20.5,4.3C17.9,3.3,15.9,5.7,14,7z"/>
	</g>
</g>
</svg>
