<?xml version="1.0" encoding="UTF-8"?>
<svg width="24px" height="25px" viewBox="0 0 24 25" version="1.1" xmlns="http://www.w3.org/2000/svg" xmlns:xlink="http://www.w3.org/1999/xlink">
    <!-- Generator: sketchtool 41.2 (35397) - http://www.bohemiancoding.com/sketch -->
    <title>A388EA82-9789-43DE-B053-383716A81F02</title>
    <desc>Created with sketchtool.</desc>
    <defs></defs>
    <g id="Page-1" stroke="none" stroke-width="1" fill="none" fill-rule="evenodd">
        <g id="marketplace-oldskin" transform="translate(-1291.000000, -350.000000)" fill="#000000">
            <g id="ic_invoice" transform="translate(1291.000000, 350.000000)">
                <g id="Group">
                    <path d="M0.929411765,21.0727273 L0.823529412,0.605263158 C0.823529412,0.288755981 1.08823529,0.025 1.40588235,0.025 L20.5176471,0.025 C20.8352941,0.025 21.1,0.288755981 21.1,0.605263158 L21.2058824,16.0613636 L23.3764706,16.0613636 C23.6941176,16.0613636 23.9588235,16.3251196 23.9588235,16.6416268 L23.9588235,21.1254785 C23.9588235,23.0245215 22.5294118,24.5543062 20.6764706,24.765311 L4.63529412,24.765311 C2.62352941,24.765311 0.929411765,23.1300239 0.929411765,21.0727273 Z M21.2058824,23.4465311 C22.1588235,23.0772727 22.7941176,22.1805024 22.7941176,21.1254785 L22.7941176,17.22189 L21.2058824,17.22189 L21.2058824,23.4465311 L21.2058824,23.4465311 Z M2.09411765,1.3437799 L2.09411765,21.6306956 C2.09411765,22.7227449 3.20588235,23.6047847 4.58235294,23.6047847 L20.0411765,23.6047847 L20.0411765,1.3437799 L2.09411765,1.3437799 L2.09411765,1.3437799 Z M16.2294118,18.9626794 L5.95882353,18.9626794 C5.64117647,18.9626794 5.37647059,18.6989234 5.37647059,18.3824163 C5.37647059,18.0659091 5.64117647,17.8021531 5.95882353,17.8021531 L16.2294118,17.8021531 C16.5470588,17.8021531 16.8117647,18.0659091 16.8117647,18.3824163 C16.8117647,18.6989234 16.5470588,18.9626794 16.2294118,18.9626794 L16.2294118,18.9626794 Z M16.2294118,5.82763158 L5.95882353,5.82763158 C5.64117647,5.82763158 5.37647059,5.5638756 5.37647059,5.24736842 C5.37647059,4.93086124 5.64117647,4.66710526 5.95882353,4.66710526 L16.2294118,4.66710526 C16.5470588,4.66710526 16.8117647,4.93086124 16.8117647,5.24736842 C16.8117647,5.5638756 16.5470588,5.82763158 16.2294118,5.82763158 L16.2294118,5.82763158 Z M16.2294118,10.2059809 L5.95882353,10.2059809 C5.64117647,10.2059809 5.37647059,9.94222488 5.37647059,9.6257177 C5.37647059,9.30921053 5.64117647,9.04545455 5.95882353,9.04545455 L16.2294118,9.04545455 C16.5470588,9.04545455 16.8117647,9.30921053 16.8117647,9.6257177 C16.8117647,9.94222488 16.5470588,10.2059809 16.2294118,10.2059809 L16.2294118,10.2059809 Z M16.2294118,14.5843301 L5.95882353,14.5843301 C5.64117647,14.5843301 5.37647059,14.3205742 5.37647059,14.004067 C5.37647059,13.6875598 5.64117647,13.4238038 5.95882353,13.4238038 L16.2294118,13.4238038 C16.5470588,13.4238038 16.8117647,13.6875598 16.8117647,14.004067 C16.8117647,14.3205742 16.5470588,14.5843301 16.2294118,14.5843301 L16.2294118,14.5843301 Z" id="Shape"></path>
                </g>
            </g>
        </g>
    </g>
</svg>