<?xml version="1.0" encoding="UTF-8"?>
<svg width="54px" height="33px" viewBox="0 0 54 33" version="1.1" xmlns="http://www.w3.org/2000/svg" xmlns:xlink="http://www.w3.org/1999/xlink">
    <!-- Generator: sketchtool 41.1 (35376) - http://www.bohemiancoding.com/sketch -->
    <title>AE8678B5-146C-4C7B-B848-C011FE88D810</title>
    <desc>Created with sketchtool.</desc>
    <defs>
        <rect id="path-1" x="0" y="0" width="54" height="33" rx="4"></rect>
        <mask id="mask-2" maskContentUnits="userSpaceOnUse" maskUnits="objectBoundingBox" x="0" y="0" width="54" height="33" fill="white">
            <use xlink:href="#path-1"></use>
        </mask>
        <linearGradient x1="-57.5458871%" y1="50.1046875%" x2="232.407984%" y2="50.1046875%" id="linearGradient-3">
            <stop stop-color="#007940" offset="0%"></stop>
            <stop stop-color="#00873F" offset="22.85%"></stop>
            <stop stop-color="#40A737" offset="74.33%"></stop>
            <stop stop-color="#5CB531" offset="100%"></stop>
        </linearGradient>
        <linearGradient x1="0.182544543%" y1="49.9583524%" x2="100.273469%" y2="49.9583524%" id="linearGradient-4">
            <stop stop-color="#007940" offset="0%"></stop>
            <stop stop-color="#00873F" offset="22.85%"></stop>
            <stop stop-color="#40A737" offset="74.33%"></stop>
            <stop stop-color="#5CB531" offset="100%"></stop>
        </linearGradient>
        <linearGradient x1="-62.8149648%" y1="49.8288352%" x2="253.65625%" y2="49.8288352%" id="linearGradient-5">
            <stop stop-color="#007940" offset="0%"></stop>
            <stop stop-color="#00873F" offset="22.85%"></stop>
            <stop stop-color="#40A737" offset="74.33%"></stop>
            <stop stop-color="#5CB531" offset="100%"></stop>
        </linearGradient>
        <linearGradient x1="0.172076837%" y1="50.0041858%" x2="101.807183%" y2="50.0041858%" id="linearGradient-6">
            <stop stop-color="#1F286F" offset="0%"></stop>
            <stop stop-color="#004E94" offset="47.51%"></stop>
            <stop stop-color="#0066B1" offset="82.61%"></stop>
            <stop stop-color="#006FBC" offset="100%"></stop>
        </linearGradient>
        <linearGradient x1="-0.578841871%" y1="49.912603%" x2="98.1287584%" y2="49.912603%" id="linearGradient-7">
            <stop stop-color="#6C2C2F" offset="0%"></stop>
            <stop stop-color="#882730" offset="17.35%"></stop>
            <stop stop-color="#BE1833" offset="57.31%"></stop>
            <stop stop-color="#DC0436" offset="85.85%"></stop>
            <stop stop-color="#E60039" offset="100%"></stop>
        </linearGradient>
    </defs>
    <g id="Symbols" stroke="none" stroke-width="1" fill="none" fill-rule="evenodd">
        <g id="footer" transform="translate(-1061.000000, -64.000000)">
            <g id="support-connect-appdownload">
                <g>
                    <g id="Group-24">
                        <g id="ic_jcb" transform="translate(1061.000000, 64.000000)">
                            <use id="Rectangle-14-Copy-5" stroke="#E4E4E4" mask="url(#mask-2)" stroke-width="2" fill="#F2F2F2" xlink:href="#path-1"></use>
                            <g id="Group" transform="translate(10.000000, 4.000000)">
                                <g id="Shape">
                                    <g transform="translate(21.928459, 0.115186)">
                                        <path d="M1.94375703,14.3622047 L4.21147357,14.3622047 C4.27626547,14.3622047 4.42744657,14.3406074 4.49223847,14.3406074 C4.92418448,14.2542182 5.29133858,13.8654668 5.29133858,13.3255343 C5.29133858,12.8071991 4.92418448,12.4184477 4.49223847,12.3104612 C4.42744657,12.2888639 4.29786277,12.2888639 4.21147357,12.2888639 L1.94375703,12.2888639 L1.94375703,14.3622047 L1.94375703,14.3622047 Z" fill="url(#linearGradient-3)"></path>
                                        <path d="M3.95230596,0.0431946007 C1.79257593,0.0431946007 0.0215973003,1.79257593 0.0215973003,3.97390326 L0.0215973003,8.05579303 L5.57210349,8.05579303 C5.70168729,8.05579303 5.85286839,8.05579303 5.96085489,8.07739033 C7.21349831,8.14218223 8.14218223,8.79010124 8.14218223,9.91316085 C8.14218223,10.7986502 7.51586052,11.5545557 6.3496063,11.7057368 L6.3496063,11.7489314 C7.62384702,11.8353206 8.59572553,12.5480315 8.59572553,13.6494938 C8.59572553,14.8373453 7.51586052,15.6148481 6.0904387,15.6148481 L0,15.6148481 L0,23.6058493 L5.76647919,23.6058493 C7.92620922,23.6058493 9.69718785,21.8564679 9.69718785,19.6751406 L9.69718785,0.0431946007 L3.95230596,0.0431946007 L3.95230596,0.0431946007 Z" fill="url(#linearGradient-4)"></path>
                                        <path d="M5.01057368,10.1723285 C5.01057368,9.65399325 4.64341957,9.30843645 4.21147357,9.24364454 C4.16827897,9.24364454 4.06029246,9.22204724 3.99550056,9.22204724 L1.94375703,9.22204724 L1.94375703,11.1226097 L3.99550056,11.1226097 C4.06029246,11.1226097 4.18987627,11.1226097 4.21147357,11.1010124 C4.64341957,11.0362205 5.01057368,10.6906637 5.01057368,10.1723285 L5.01057368,10.1723285 Z" fill="url(#linearGradient-5)"></path>
                                    </g>
                                    <path d="M4.15388076,0.158380202 C1.99415073,0.158380202 0.223172103,1.90776153 0.223172103,4.08908886 L0.223172103,13.7862767 C1.32463442,14.3262092 2.46929134,14.671766 3.61394826,14.671766 C4.97457818,14.671766 5.70888639,13.8510686 5.70888639,12.728009 L5.70888639,8.14938133 L9.07806524,8.14938133 L9.07806524,12.7064117 C9.07806524,14.4773903 7.97660292,15.9244094 4.24026997,15.9244094 C1.97255343,15.9244094 0.201574803,15.4276715 0.201574803,15.4276715 L0.201574803,23.6994376 L5.96805399,23.6994376 C8.12778403,23.6994376 9.89876265,21.9500562 9.89876265,19.7687289 L9.89876265,0.158380202 L4.15388076,0.158380202 L4.15388076,0.158380202 Z" fill="url(#linearGradient-6)"></path>
                                    <path d="M15.0173228,0.158380202 C12.8575928,0.158380202 11.0866142,1.90776153 11.0866142,4.08908886 L11.0866142,9.22924634 C12.08009,8.38695163 13.807874,7.84701912 16.5939258,7.97660292 C18.0841395,8.04139483 19.6823397,8.45174353 19.6823397,8.45174353 L19.6823397,10.1147357 C18.8832396,9.70438695 17.9329584,9.33723285 16.7019123,9.25084364 C14.5853768,9.09966254 13.3111361,10.136333 13.3111361,11.9505062 C13.3111361,13.7862767 14.5853768,14.8229471 16.7019123,14.6501687 C17.9329584,14.5637795 18.8832396,14.1750281 19.6823397,13.7862767 L19.6823397,15.4492688 C19.6823397,15.4492688 18.1057368,15.8596175 16.5939258,15.9244094 C13.807874,16.0539933 12.08009,15.5140607 11.0866142,14.671766 L11.0866142,23.7426322 L16.8530934,23.7426322 C19.0128234,23.7426322 20.783802,21.9932508 20.783802,19.8119235 L20.783802,0.158380202 L15.0173228,0.158380202 L15.0173228,0.158380202 Z" fill="url(#linearGradient-7)"></path>
                                </g>
                            </g>
                        </g>
                    </g>
                </g>
            </g>
        </g>
    </g>
</svg>