<?xml version="1.0" encoding="UTF-8"?>
<svg width="38px" height="57px" viewBox="0 0 38 57" version="1.1" xmlns="http://www.w3.org/2000/svg" xmlns:xlink="http://www.w3.org/1999/xlink">
    <!-- Generator: sketchtool 41.1 (35376) - http://www.bohemiancoding.com/sketch -->
    <title>D1C8C297-AF6D-4ED4-8247-3DA9A9DDA45D</title>
    <desc>Created with sketchtool.</desc>
    <defs></defs>
    <g id="Symbols" stroke="none" stroke-width="1" fill="none" fill-rule="evenodd">
        <g id="footer" transform="translate(-197.000000, -332.000000)" fill="#E4E4E4">
            <g id="address">
                <g transform="translate(0.000000, 302.000000)">
                    <g id="ic_location" transform="translate(197.000000, 30.000000)">
                        <g id="#000000ff">
                            <path d="M10.0418519,2.26592593 C15.6644444,-0.816296296 22.8703704,-0.717777778 28.4085185,2.51222222 C34.6574074,6.0237037 38.6544444,13.3351852 37.8662963,20.512963 C37.3314815,24.5240741 35.5651852,28.2255556 33.8762963,31.8566667 C29.6259259,40.462963 24.4677778,48.5837037 19,56.4581481 C13.3422222,48.2811111 7.96592593,39.8577778 3.65925926,30.8785185 C1.7662963,26.6844444 -0.302592593,22.2581481 0.0703703704,17.5292593 C0.49962963,11.1748148 4.4262963,5.24259259 10.0418519,2.26592593 L10.0418519,2.26592593 Z M8.90888889,8.19814815 C4.77111111,11.962963 3.05407407,18.2611111 5.1862963,23.5107407 C8.48666667,32.5885185 13.7785185,40.7937037 19.007037,48.8581481 C22.9618519,42.9540741 26.6,36.8248148 29.8511111,30.5055556 C31.5048148,27.0855556 33.1514815,23.567037 33.6933333,19.7740741 C34.2,13.9333333 30.6251852,8.08555556 25.3262963,5.6437037 C20.0133333,3.06111111 13.1803704,4.08851852 8.90888889,8.19814815 Z" id="Shape"></path>
                            <path d="M17.7122222,14.9818519 C20.7803704,13.8207407 24.1511111,17.1562963 23.0251852,20.2455556 C22.2651852,23.187037 18.1133333,24.2214815 16.0444444,22.0048148 C13.7785185,19.9711111 14.7707407,15.7840741 17.7122222,14.9818519 Z" id="Shape"></path>
                        </g>
                    </g>
                </g>
            </g>
        </g>
    </g>
</svg>