<?xml version="1.0" encoding="UTF-8"?>
<svg width="48px" height="48px" viewBox="0 0 48 48" version="1.1" xmlns="http://www.w3.org/2000/svg" xmlns:xlink="http://www.w3.org/1999/xlink">
    <!-- Generator: sketchtool 41.2 (35397) - http://www.bohemiancoding.com/sketch -->
    <title>5178B00B-3490-4F07-8EB1-21594C787422</title>
    <desc>Created with sketchtool.</desc>
    <defs></defs>
    <g id="Page-1" stroke="none" stroke-width="1" fill="none" fill-rule="evenodd">
        <g id="marketplace-oldskin" transform="translate(-1278.000000, -258.000000)">
            <g id="ic_marketplace" transform="translate(1278.000000, 258.000000)">
                <g id="shop">
                    <ellipse id="Oval" fill="#F99900" cx="23.8883721" cy="23.9627907" rx="23.8139535" ry="23.8139535"></ellipse>
                    <rect id="Rectangle-path" fill="#EDDADA" x="10.7906977" y="21.2837209" width="27.1255814" height="18.2325581"></rect>
                    <path d="M10.7906977,26.0093023 C11.2744186,26.2697674 11.8697674,26.3813953 12.5767442,26.3813953 C14.2139535,26.3813953 15.5162791,25.7116279 15.5162791,24.0744186 C15.5162791,25.7116279 16.8186047,26.3813953 18.455814,26.3813953 C20.0930233,26.3813953 21.3953488,25.7116279 21.3953488,24.0744186 C21.3953488,25.7116279 22.6976744,26.3813953 24.3348837,26.3813953 C25.972093,26.3813953 27.2744186,25.7116279 27.2744186,24.0744186 C27.2744186,25.7116279 28.5767442,26.3813953 30.2139535,26.3813953 C31.8511628,26.3813953 33.1534884,25.7116279 33.1534884,24.0744186 C33.1534884,25.7116279 34.455814,26.3813953 36.0930233,26.3813953 C36.7627907,26.3813953 37.4325581,26.2697674 37.9534884,26.0093023 L37.9534884,20.8744186 L10.7906977,20.8744186 L10.7906977,26.0093023 Z" id="Shape" fill="#D3B4B4"></path>
                    <path d="M37.9906977,39.4418605 C37.7674419,39.4418605 37.5813953,39.7395349 37.5813953,39.5162791 L37.5813953,21.0976744 L11.1627907,21.0976744 L11.1627907,39.5162791 C11.1627907,39.7395349 11.0139535,39.8883721 10.7906977,39.8883721 C10.5674419,39.8883721 10.4186047,39.7395349 10.4186047,39.5162791 L10.4186047,20.7255814 C10.4186047,20.5023256 10.5674419,20.3534884 10.7906977,20.3534884 L37.9906977,20.3534884 C38.2139535,20.3534884 38.3255814,20.5023256 38.3255814,20.7255814 L38.3255814,39.0697674 C38.3255814,39.2930233 38.2139535,39.4418605 37.9906977,39.4418605 Z" id="Shape" fill="#6B3C1C"></path>
                    <polygon id="Shape" fill="#F74541" points="39.0325581 18.7162791 9.74883721 18.7162791 13.8046512 14.1767442 34.9767442 14.1767442"></polygon>
                    <polygon id="Shape" fill="#FFFFFF" points="26.6790698 14.4372093 27.5348837 19.1255814 33.3023256 19.1255814 30.6232558 14.1395349"></polygon>
                    <polygon id="Shape" fill="#FFFFFF" points="21.4697674 19.0883721 15.4790698 18.9023256 18.2697674 14.1767442 22.5116279 14.2511628"></polygon>
                    <path d="M9.6372093,21.655814 C9.6372093,23.2930233 10.9395349,24.5953488 12.5767442,24.5953488 C14.2139535,24.5953488 15.5162791,23.2930233 15.5162791,21.655814 L15.5162791,18.6046512 L9.6372093,18.6046512 L9.6372093,21.655814 Z M21.3953488,21.655814 C21.3953488,23.2930233 22.6976744,24.5953488 24.3348837,24.5953488 C25.972093,24.5953488 27.2744186,23.2930233 27.2744186,21.655814 L27.2744186,18.6046512 L21.3953488,18.6046512 L21.3953488,21.655814 Z M33.1534884,21.655814 C33.1534884,23.2930233 34.455814,24.5953488 36.0930233,24.5953488 C37.7302326,24.5953488 39.144186,23.2930233 39.144186,21.655814 L39.144186,18.6046512 L33.1534884,18.6046512 L33.1534884,21.655814 Z" id="Shape" fill="#F74541"></path>
                    <path d="M15.4790698,21.9906977 C15.4790698,23.627907 16.7813953,24.9302326 18.4186047,24.9302326 C20.055814,24.9302326 21.3581395,23.627907 21.3581395,21.9906977 L21.3581395,18.9395349 L15.4790698,18.9395349 L15.4790698,21.9906977 Z M27.2372093,21.9906977 C27.2372093,23.627907 28.5395349,24.9302326 30.1767442,24.9302326 C31.8139535,24.9302326 33.1162791,23.627907 33.1162791,21.9906977 L33.1162791,18.9395349 L27.2372093,18.9395349 L27.2372093,21.9906977 Z" id="Shape" fill="#FFFFFF"></path>
                    <rect id="Rectangle-path" fill="#EDDADA" x="14.5488372" y="27.2744186" width="7.06976744" height="12.2790698"></rect>
                    <rect id="Rectangle-path" fill="#C5ECFF" x="24.2604651" y="27.2744186" width="10.0465116" height="7.44186047"></rect>
                    <rect id="Rectangle-path" fill="#F74541" x="13.9534884" y="12.3162791" width="20.8" height="1.74883721"></rect>
                    <rect id="Rectangle-path" fill="#FFFFFF" x="17.972093" y="12.3162791" width="4.35348837" height="1.71162791"></rect>
                    <rect id="Rectangle-path" fill="#FFFFFF" x="26.2697674" y="12.3162791" width="4.35348837" height="1.71162791"></rect>
                    <path d="M20.1674419,33.6 L19.4232558,33.6 C19.2,33.6 19.0511628,33.4511628 19.0511628,33.227907 C19.0511628,33.0046512 19.2,32.855814 19.4232558,32.855814 L20.1674419,32.855814 C20.3906977,32.855814 20.5395349,33.0046512 20.5395349,33.227907 C20.5395349,33.4139535 20.3534884,33.6 20.1674419,33.6 Z" id="Shape" fill="#6B3C1C"></path>
                    <path d="M40.0372093,39.8139535 L8.0744186,39.8139535 C7.85116279,39.8139535 7.70232558,39.6651163 7.70232558,39.4418605 C7.70232558,39.2186047 7.85116279,39.0697674 8.0744186,39.0697674 L40.0372093,39.0697674 C40.2604651,39.0697674 40.4093023,39.2186047 40.4093023,39.4418605 C40.4093023,39.6651163 40.2604651,39.8139535 40.0372093,39.8139535 Z" id="Shape" fill="#6B3C1C"></path>
                    <g id="Group" opacity="0.5" transform="translate(16.000000, 4.465116)" fill="#FFFFFF">
                        <path d="M3.98139535,2.19534884 C3.98139535,2.04651163 3.83255814,1.89767442 3.60930233,1.86046512 L2.90232558,1.74883721 C2.71627907,1.71162791 2.49302326,1.5255814 2.49302326,1.33953488 L2.38139535,0.63255814 C2.34418605,0.446511628 2.19534884,0.260465116 2.04651163,0.260465116 C1.89767442,0.260465116 1.74883721,0.409302326 1.71162791,0.63255814 L1.6,1.33953488 C1.5627907,1.5255814 1.37674419,1.74883721 1.19069767,1.74883721 L0.520930233,1.86046512 C0.334883721,1.89767442 0.148837209,2.04651163 0.148837209,2.19534884 C0.148837209,2.34418605 0.297674419,2.49302326 0.520930233,2.53023256 L1.22790698,2.64186047 C1.41395349,2.67906977 1.6372093,2.86511628 1.6372093,3.05116279 L1.74883721,3.75813953 C1.78604651,3.94418605 1.93488372,4.13023256 2.08372093,4.13023256 C2.23255814,4.13023256 2.38139535,3.98139535 2.41860465,3.75813953 L2.53023256,2.97674419 C2.56744186,2.79069767 2.75348837,2.60465116 2.93953488,2.56744186 L3.60930233,2.53023256 C3.79534884,2.45581395 3.98139535,2.34418605 3.98139535,2.19534884 Z" id="Shape"></path>
                    </g>
                    <g id="Group" opacity="0.5" transform="translate(41.302326, 22.697674)" fill="#FFFFFF">
                        <path d="M4.09302326,2.00930233 C4.09302326,1.86046512 3.94418605,1.71162791 3.72093023,1.6744186 L3.01395349,1.5627907 C2.82790698,1.5255814 2.60465116,1.33953488 2.60465116,1.15348837 L2.49302326,0.446511628 C2.45581395,0.260465116 2.30697674,0.0744186047 2.15813953,0.0744186047 C2.00930233,0.0744186047 1.86046512,0.223255814 1.82325581,0.446511628 L1.71162791,1.15348837 C1.6744186,1.33953488 1.48837209,1.5627907 1.30232558,1.5627907 L0.595348837,1.6744186 C0.409302326,1.71162791 0.223255814,1.86046512 0.223255814,2.00930233 C0.223255814,2.15813953 0.372093023,2.30697674 0.595348837,2.34418605 L1.30232558,2.45581395 C1.48837209,2.49302326 1.71162791,2.67906977 1.71162791,2.86511628 L1.82325581,3.57209302 C1.86046512,3.75813953 2.00930233,3.94418605 2.15813953,3.94418605 C2.30697674,3.94418605 2.45581395,3.79534884 2.49302326,3.57209302 L2.60465116,2.79069767 C2.64186047,2.60465116 2.82790698,2.41860465 3.01395349,2.38139535 L3.68372093,2.34418605 C3.94418605,2.26976744 4.09302326,2.15813953 4.09302326,2.00930233 Z" id="Shape"></path>
                    </g>
                    <g id="Group" opacity="0.5" transform="translate(4.093023, 24.558140)" fill="#FFFFFF">
                        <path d="M1.6,3.2372093 C0.706976744,3.2372093 0,2.53023256 0,1.6372093 C0,0.744186047 0.706976744,0.0372093023 1.6,0.0372093023 C2.49302326,0.0372093023 3.2,0.744186047 3.2,1.6372093 C3.2,2.53023256 2.49302326,3.2372093 1.6,3.2372093 Z M1.6,0.781395349 C1.11627907,0.781395349 0.744186047,1.15348837 0.744186047,1.6372093 C0.744186047,2.12093023 1.11627907,2.49302326 1.6,2.49302326 C2.08372093,2.49302326 2.45581395,2.12093023 2.45581395,1.6372093 C2.45581395,1.15348837 2.08372093,0.781395349 1.6,0.781395349 Z" id="Shape"></path>
                    </g>
                    <g id="Group" opacity="0.5" transform="translate(28.279070, 6.697674)" fill="#FFFFFF">
                        <path d="M1.71162791,3.46046512 C0.818604651,3.46046512 0.111627907,2.75348837 0.111627907,1.86046512 C0.111627907,0.96744186 0.818604651,0.260465116 1.71162791,0.260465116 C2.60465116,0.260465116 3.31162791,0.96744186 3.31162791,1.86046512 C3.2744186,2.75348837 2.56744186,3.46046512 1.71162791,3.46046512 Z M1.71162791,1.00465116 C1.22790698,1.00465116 0.855813953,1.37674419 0.855813953,1.86046512 C0.855813953,2.34418605 1.22790698,2.71627907 1.71162791,2.71627907 C2.19534884,2.71627907 2.56744186,2.34418605 2.56744186,1.86046512 C2.53023256,1.37674419 2.15813953,1.00465116 1.71162791,1.00465116 Z" id="Shape"></path>
                    </g>
                    <g id="Group" opacity="0.5" transform="translate(39.441860, 29.023256)" fill="#FFFFFF">
                        <path d="M1.6,3.46046512 C0.706976744,3.46046512 0,2.75348837 0,1.86046512 C0,0.96744186 0.706976744,0.260465116 1.6,0.260465116 C2.49302326,0.260465116 3.2,0.96744186 3.2,1.86046512 C3.2,2.75348837 2.49302326,3.46046512 1.6,3.46046512 Z M1.6,1.00465116 C1.11627907,1.00465116 0.744186047,1.37674419 0.744186047,1.86046512 C0.744186047,2.34418605 1.11627907,2.71627907 1.6,2.71627907 C2.08372093,2.71627907 2.45581395,2.34418605 2.45581395,1.86046512 C2.45581395,1.37674419 2.04651163,1.00465116 1.6,1.00465116 Z" id="Shape"></path>
                    </g>
                    <g id="Group" opacity="0.5" transform="translate(35.720930, 19.720930)" fill="#FFFFFF">
                        <path d="M0.446511628,3.38604651 C0.223255814,3.38604651 0.0744186047,3.2372093 0.0744186047,3.01395349 C0.0744186047,2.79069767 0.223255814,2.64186047 0.446511628,2.64186047 C1.00465116,2.64186047 1.48837209,2.19534884 1.48837209,1.6744186 L1.48837209,0.372093023 C1.48837209,0.148837209 1.6372093,0 1.86046512,0 C2.08372093,0 2.23255814,0.148837209 2.23255814,0.372093023 L2.23255814,1.71162791 C2.23255814,2.64186047 1.41395349,3.38604651 0.446511628,3.38604651 Z" id="Shape"></path>
                    </g>
                    <g id="Group" opacity="0.5" transform="translate(23.813953, 19.720930)" fill="#FFFFFF">
                        <path d="M0.446511628,3.46046512 C0.223255814,3.46046512 0.0744186047,3.31162791 0.0744186047,3.08837209 C0.0744186047,2.86511628 0.223255814,2.71627907 0.446511628,2.71627907 C1.00465116,2.71627907 1.48837209,2.26976744 1.48837209,1.74883721 L1.48837209,0.409302326 C1.48837209,0.186046512 1.6372093,0.0372093023 1.86046512,0.0372093023 C2.08372093,0.0372093023 2.23255814,0.186046512 2.23255814,0.409302326 L2.23255814,1.74883721 C2.23255814,2.67906977 1.41395349,3.46046512 0.446511628,3.46046512 Z" id="Shape"></path>
                    </g>
                    <g id="Group" opacity="0.5" transform="translate(12.279070, 19.720930)" fill="#FFFFFF">
                        <path d="M0.446511628,3.46046512 C0.223255814,3.46046512 0.0744186047,3.31162791 0.0744186047,3.08837209 C0.0744186047,2.86511628 0.223255814,2.71627907 0.446511628,2.71627907 C1.00465116,2.71627907 1.48837209,2.26976744 1.48837209,1.74883721 L1.48837209,0.409302326 C1.48837209,0.186046512 1.6372093,0.0372093023 1.86046512,0.0372093023 C2.08372093,0.0372093023 2.23255814,0.186046512 2.23255814,0.409302326 L2.23255814,1.74883721 C2.23255814,2.67906977 1.41395349,3.46046512 0.446511628,3.46046512 Z" id="Shape"></path>
                    </g>
                    <g id="Group" opacity="0.5" transform="translate(33.488372, 14.883721)" fill="#FFFFFF">
                        <path d="M2.45581395,2.93953488 C2.34418605,2.93953488 2.23255814,2.90232558 2.15813953,2.82790698 L0.446511628,0.893023256 C0.297674419,0.744186047 0.334883721,0.520930233 0.48372093,0.372093023 C0.63255814,0.223255814 0.855813953,0.260465116 1.00465116,0.409302326 L2.71627907,2.34418605 C2.86511628,2.49302326 2.82790698,2.71627907 2.67906977,2.86511628 C2.64186047,2.93953488 2.53023256,2.93953488 2.45581395,2.93953488 Z" id="Shape"></path>
                    </g>
                    <path d="M36.4651163,37.9534884 C36.2418605,37.9534884 36.0930233,37.8046512 36.0930233,37.5813953 L36.0930233,27.7209302 C36.0930233,27.4976744 36.2418605,27.3488372 36.4651163,27.3488372 C36.6883721,27.3488372 36.8372093,27.4976744 36.8372093,27.7209302 L36.8372093,37.5813953 C36.8372093,37.8046512 36.6883721,37.9534884 36.4651163,37.9534884 Z" id="Shape" fill="#FFFFFF"></path>
                    <path d="M24.1488372,32.744186 C24.0372093,32.744186 23.9627907,32.7069767 23.8883721,32.6325581 C23.7395349,32.4837209 23.7395349,32.2604651 23.8883721,32.1116279 L28.7255814,27.2744186 C28.8744186,27.1255814 29.0976744,27.1255814 29.2465116,27.2744186 C29.3953488,27.4232558 29.3953488,27.6465116 29.2465116,27.7953488 L24.4093023,32.6325581 C24.3348837,32.7069767 24.2604651,32.744186 24.1488372,32.744186 Z" id="Shape" fill="#FFFFFF"></path>
                    <path d="M26.1581395,34.7162791 C26.0465116,34.7162791 25.972093,34.6790698 25.8976744,34.6046512 C25.7488372,34.455814 25.7488372,34.2325581 25.8976744,34.0837209 L29.8790698,30.1023256 C30.027907,29.9534884 30.2511628,29.9534884 30.4,30.1023256 C30.5488372,30.2511628 30.5488372,30.4744186 30.4,30.6232558 L26.4186047,34.6046512 C26.344186,34.6790698 26.2697674,34.7162791 26.1581395,34.7162791 Z" id="Shape" fill="#FFFFFF"></path>
                    <path d="M31.7023256,29.172093 C31.5906977,29.172093 31.5162791,29.1348837 31.4418605,29.0604651 C31.2930233,28.9116279 31.2930233,28.6883721 31.4418605,28.5395349 L32.8930233,27.0883721 C33.0418605,26.9395349 33.2651163,26.9395349 33.4139535,27.0883721 C33.5627907,27.2372093 33.5627907,27.4604651 33.4139535,27.6093023 L31.9627907,29.0604651 C31.8883721,29.1348837 31.7767442,29.172093 31.7023256,29.172093 Z" id="Shape" fill="#FFFFFF"></path>
                    <path d="M29.8790698,34.9767442 C29.7674419,34.9767442 29.6930233,34.9395349 29.6186047,34.8651163 C29.4697674,34.7162791 29.4697674,34.4930233 29.6186047,34.344186 L32.1116279,31.8511628 C32.2604651,31.7023256 32.4837209,31.7023256 32.6325581,31.8511628 C32.7813953,32 32.7813953,32.2232558 32.6325581,32.372093 L30.1395349,34.8651163 C30.0651163,34.9395349 29.9534884,34.9767442 29.8790698,34.9767442 Z" id="Shape" fill="#FFFFFF"></path>
                    <path d="M34.2325581,34.9767442 L24.1860465,34.9767442 C23.9627907,34.9767442 23.8139535,34.827907 23.8139535,34.6046512 L23.8139535,27.1627907 C23.8139535,26.9395349 23.9627907,26.7906977 24.1860465,26.7906977 L34.2325581,26.7906977 C34.455814,26.7906977 34.6046512,26.9395349 34.6046512,27.1627907 L34.6046512,34.6046512 C34.6046512,34.827907 34.455814,34.9767442 34.2325581,34.9767442 Z M24.5581395,34.2325581 L33.8604651,34.2325581 L33.8604651,27.5348837 L24.5581395,27.5348837 L24.5581395,34.2325581 Z" id="Shape" fill="#6B3C1C"></path>
                    <path d="M21.9534884,39.8139535 C21.7302326,39.8139535 21.5813953,39.6651163 21.5813953,39.4418605 L21.5813953,27.5348837 L15.255814,27.5348837 L15.255814,39.4418605 C15.255814,39.6651163 15.1069767,39.8139535 14.8837209,39.8139535 C14.6604651,39.8139535 14.5116279,39.6651163 14.5116279,39.4418605 L14.5116279,27.1627907 C14.5116279,26.9395349 14.6604651,26.7906977 14.8837209,26.7906977 L21.9534884,26.7906977 C22.1767442,26.7906977 22.3255814,26.9395349 22.3255814,27.1627907 L22.3255814,39.4418605 C22.3255814,39.6651163 22.1767442,39.8139535 21.9534884,39.8139535 Z" id="Shape" fill="#6B3C1C"></path>
                    <path d="M39.4418605,18.6046512 C39.4418605,18.4930233 39.4046512,18.3813953 39.2930233,18.3069767 L35.3488372,14.0651163 L35.3488372,11.9069767 C35.3488372,11.6837209 35.2,11.5348837 34.9767442,11.5348837 L13.7674419,11.5348837 C13.544186,11.5348837 13.3953488,11.6837209 13.3953488,11.9069767 L13.3953488,13.9906977 L9.45116279,18.3069767 C9.33953488,18.3813953 9.30232558,18.455814 9.30232558,18.6046512 L9.30232558,21.655814 C9.30232558,23.5162791 10.7162791,24.9674419 12.5395349,24.9674419 C13.8418605,24.9674419 14.9953488,24.1860465 15.5162791,23.1069767 C16.0372093,24.2232558 17.1162791,24.9674419 18.4186047,24.9674419 C19.7209302,24.9674419 20.9488372,24.2232558 21.544186,23.144186 C22.1023256,24.2232558 23.255814,24.9674419 24.5209302,24.9674419 C25.7860465,24.9674419 26.9023256,24.2604651 27.4604651,23.255814 C27.9069767,24.2232558 28.8744186,24.9302326 30.1395349,24.9302326 C31.4046512,24.9302326 32.5209302,24.2232558 33.0790698,23.144186 C33.6372093,24.1860465 34.7534884,24.9302326 36.0186047,24.9302326 C37.8790698,24.9302326 39.4418605,23.4046512 39.4418605,21.6186047 L39.4418605,18.7906977 C39.4790698,18.7534884 39.4418605,18.6790698 39.4418605,18.6046512 Z M34.6046512,12.2790698 L34.6046512,13.7674419 L30.8837209,13.7674419 L30.8837209,12.2790698 L34.6046512,12.2790698 Z M30.1395349,12.2790698 L30.1395349,13.7674419 L26.7906977,13.7674419 L26.7906977,12.2790698 L30.1395349,12.2790698 Z M26.0465116,12.2790698 L26.0465116,13.7674419 L22.6976744,13.7674419 L22.6976744,12.2790698 L26.0465116,12.2790698 Z M21.9534884,12.2790698 L21.9534884,13.7674419 L18.2325581,13.7674419 L18.2325581,12.2790698 L21.9534884,12.2790698 Z M17.4883721,12.2790698 L17.4883721,13.7674419 L14.1395349,13.7674419 L14.1395349,12.2790698 L17.4883721,12.2790698 Z M15.255814,21.6186047 C15.255814,23.0325581 13.9534884,24.1860465 12.5395349,24.1860465 C11.1627907,24.1860465 10.0093023,23.0697674 10.0093023,21.6186047 L10.0093023,18.9767442 L15.255814,18.9767442 L15.255814,21.6186047 Z M15.255814,18.2325581 L10.5302326,18.2325581 L13.9162791,14.5116279 L17.4883721,14.5116279 L15.255814,18.2325581 Z M21.2093023,21.6186047 C21.2093023,22.8465116 19.8325581,24.2232558 18.4186047,24.2232558 C17.0046512,24.2232558 16,23.0697674 16,21.655814 L16,18.9767442 L21.2093023,18.9767442 L21.2093023,21.6186047 Z M21.2093023,18.2325581 L16,18.2325581 L18.2325581,14.5116279 L21.9534884,14.5116279 L21.2093023,18.2325581 Z M22.6976744,14.5116279 L26.1209302,14.5116279 L26.6790698,18.2325581 L21.8790698,18.2325581 L22.6976744,14.5116279 Z M26.7906977,21.6186047 C26.7906977,23.0325581 25.8976744,24.1860465 24.4837209,24.1860465 C23.0697674,24.1860465 21.9534884,23.0325581 21.9534884,21.6186047 L21.9534884,18.9767442 L26.7906977,18.9767442 L26.7906977,21.6186047 Z M26.8651163,14.5116279 L30.1395349,14.5116279 L32.744186,18.2325581 L27.4604651,18.2325581 L26.8651163,14.5116279 Z M32.744186,21.655814 C32.744186,23.0697674 31.5534884,24.2232558 30.1395349,24.2232558 C28.7255814,24.2232558 27.5348837,23.0697674 27.5348837,21.655814 L27.5348837,18.9767442 L32.744186,18.9767442 L32.744186,21.655814 Z M30.8837209,14.5116279 L34.7534884,14.5116279 L38.2139535,18.2325581 L33.4883721,18.2325581 L30.8837209,14.5116279 Z M38.6976744,21.6186047 C38.6976744,22.9953488 37.4697674,24.1860465 36.0186047,24.1860465 C34.7162791,24.1860465 33.6372093,23.1813953 33.4883721,21.9162791 L33.4883721,18.9767442 L38.6976744,18.9767442 L38.6976744,21.6186047 Z" id="Shape" fill="#6B3C1C"></path>
                </g>
            </g>
        </g>
    </g>
</svg>