<?xml version="1.0" encoding="UTF-8"?>
<svg width="54px" height="33px" viewBox="0 0 54 33" version="1.1" xmlns="http://www.w3.org/2000/svg" xmlns:xlink="http://www.w3.org/1999/xlink">
    <!-- Generator: sketchtool 41.1 (35376) - http://www.bohemiancoding.com/sketch -->
    <title>E0A10010-B22C-424D-B85D-2F17B9DC0162</title>
    <desc>Created with sketchtool.</desc>
    <defs>
        <rect id="path-1" x="0" y="0" width="54" height="33" rx="4"></rect>
        <mask id="mask-2" maskContentUnits="userSpaceOnUse" maskUnits="objectBoundingBox" x="0" y="0" width="54" height="33" fill="white">
            <use xlink:href="#path-1"></use>
        </mask>
    </defs>
    <g id="Symbols" stroke="none" stroke-width="1" fill="none" fill-rule="evenodd">
        <g id="footer" transform="translate(-997.000000, -64.000000)">
            <g id="support-connect-appdownload">
                <g>
                    <g id="Group-24">
                        <g id="ic_mastercard" transform="translate(997.000000, 64.000000)">
                            <use id="Rectangle-14-Copy-3" stroke="#E4E4E4" mask="url(#mask-2)" stroke-width="2" fill="#F2F2F2" xlink:href="#path-1"></use>
                            <g id="Mastercard-logo" transform="translate(10.000000, 6.000000)">
                                <g id="g3125">
                                    <g id="g3115">
                                        <g id="g3110">
                                            <path d="M33.0671799,10.2441771 C33.0671799,15.9006543 28.4903669,20.4861359 22.8445809,20.4861359 C17.1987949,20.4861359 12.6219805,15.9006543 12.6219805,10.2441771 C12.6219805,4.58769894 17.1987949,0.00221768855 22.8445809,0.00221768855 C28.4903669,0.00221768855 33.0671799,4.58769894 33.0671799,10.2441771 L33.0671799,10.2441771 Z" id="path2997" fill="#F79F1A"></path>
                                            <path d="M20.4560523,10.2441771 C20.4560523,15.9006543 15.8792393,20.4861359 10.2334533,20.4861359 C4.5876673,20.4861359 0.010852934,15.9006543 0.010852934,10.2441771 C0.010852934,4.58769894 4.5876673,0.00221768855 10.2334533,0.00221768855 C15.8792393,0.00221768855 20.4560523,4.58769894 20.4560523,10.2441771 L20.4560523,10.2441771 Z" id="path2995" fill="#EA001B"></path>
                                            <path d="M16.5390378,2.18163185 C14.1538467,4.05660146 12.6227751,6.97019073 12.6227751,10.2432174 C12.6227751,13.5162441 14.1538467,16.4320571 16.5390378,18.3070269 C18.9242288,16.4320571 20.4553005,13.5162441 20.4553005,10.2432174 C20.4553005,6.97019073 18.9242288,4.05660146 16.5390378,2.18163185 L16.5390378,2.18163185 Z" id="path2999" fill="#FF5F01"></path>
                                        </g>
                                        <g id="g3043" transform="translate(32.204037, 15.285020)" fill="#F79F1A">
                                            <g id="text3045">
                                                <path d="M0.84401481,0.53097382 L0.84401481,0.03097382 L0.748571895,0.03097382 L0.638781349,0.37483047 L0.528990802,0.03097382 L0.433547888,0.03097382 L0.433547888,0.53097382 L0.500919357,0.53097382 L0.500919357,0.153840711 L0.603847996,0.478926037 L0.67371471,0.478926037 L0.776643341,0.152987471 L0.776643341,0.53097382 L0.84401481,0.53097382 Z M0.239543005,0.53097382 L0.239543005,0.116298049 L0.361809747,0.116298049 L0.361809747,0.0318270609 L0.0505286028,0.0318270609 L0.0505286028,0.116298049 L0.172795344,0.116298049 L0.172795344,0.53097382 L0.239543005,0.53097382 Z" id="path3057"></path>
                                            </g>
                                        </g>
                                    </g>
                                </g>
                            </g>
                        </g>
                    </g>
                </g>
            </g>
        </g>
    </g>
</svg>