<?xml version="1.0" encoding="UTF-8"?>
<svg width="21px" height="26px" viewBox="0 0 21 26" version="1.1" xmlns="http://www.w3.org/2000/svg" xmlns:xlink="http://www.w3.org/1999/xlink">
    <!-- Generator: sketchtool 41.2 (35397) - http://www.bohemiancoding.com/sketch -->
    <title>867DA12D-73C0-4D88-81E8-E0AC71A51BAD</title>
    <desc>Created with sketchtool.</desc>
    <defs></defs>
    <g id="Page-1" stroke="none" stroke-width="1" fill="none" fill-rule="evenodd">
        <g id="marketplace-oldskin" transform="translate(-1291.000000, -315.000000)" fill="#000000">
            <g id="ic_warranty" transform="translate(1291.000000, 315.000000)">
                <g id="vec_x5F_bonus_x5F_1_x5C_3">
                    <path d="M10.6864553,2.1120228 C13.1786874,4.05023145 16.8196297,5.78134328 19.5801081,6.02293704 L19.5801081,13.8116216 C19.5801081,17.6122105 17.4723817,20.2616492 13.2416429,22.9531658 C12.7913843,23.2396119 12.3223664,23.5250402 11.7426328,23.8682291 C11.5673741,23.9719782 11.0070807,24.3008057 10.6237696,24.5262381 C10.1732893,24.256138 9.40131117,23.7937077 9.09553937,23.6062205 C8.30486351,23.1214094 7.63046036,22.6827465 6.98853227,22.2271632 C3.54626903,19.7841522 1.6220609,17.2260036 1.54998572,14.1754402 C1.49949208,12.0368308 1.49113668,10.9782922 1.50766199,9.81560035 C1.5108463,9.59155776 1.52570841,8.72255949 1.5249361,8.76968286 C1.53929727,7.89341392 1.54742163,7.08151862 1.54957691,6.02182059 C4.28191675,5.77448421 8.02953389,4.02596763 10.6864553,2.1120228 Z M0.91772973,4.78681081 L0.285297297,4.78681081 L0.285297297,5.41924324 C0.285297297,6.78212811 0.277095834,7.72053631 0.260241074,8.74895578 C0.261042211,8.70007318 0.246139729,9.57143219 0.242924861,9.79762468 C0.22615102,10.9778028 0.234628588,12.0518189 0.2854735,14.2053063 C0.369143094,17.7466003 2.52124329,20.6077211 6.25647269,23.2586534 C6.92429457,23.7326137 7.62139076,24.1860372 8.4343674,24.6845223 C8.85858645,24.9446367 10.1426224,25.7116634 10.2920621,25.8025339 L10.6164891,25.9998099 L10.9431203,25.8062052 C11.1779719,25.6670012 12.1433321,25.1009022 12.3869679,24.9566754 C12.9773915,24.6071583 13.4572641,24.3151242 13.9205793,24.0203717 C18.4786294,21.1206258 20.844973,18.146102 20.844973,13.8116216 L20.844973,4.78681081 L20.2125405,4.78681081 C17.6069833,4.78681081 13.5752586,2.87077814 11.1053701,0.826822933 L10.719199,0.507247268 L10.3198817,0.810236217 C7.64810557,2.83749248 3.47061546,4.78681081 0.91772973,4.78681081 Z" id="Shape"></path>
                    <polygon id="Shape" points="6.92476364 12.5999367 6.03026339 13.4942255 9.44919037 16.9139609 15.0507648 11.3123865 14.1563703 10.4179919 9.44929611 15.1250661"></polygon>
                </g>
            </g>
        </g>
    </g>
</svg>