<?xml version="1.0" encoding="UTF-8"?>
<svg width="32px" height="32px" viewBox="0 0 32 32" version="1.1" xmlns="http://www.w3.org/2000/svg" xmlns:xlink="http://www.w3.org/1999/xlink">
    <!-- Generator: sketchtool 41.2 (35397) - http://www.bohemiancoding.com/sketch -->
    <title>16496824-C9CC-4E49-8016-A9AD8EB94332</title>
    <desc>Created with sketchtool.</desc>
    <defs></defs>
    <g id="Symbols" stroke="none" stroke-width="1" fill="none" fill-rule="evenodd">
        <g id="ic_youtube">
            <g>
                <g id="Group" transform="translate(3.000000, 6.000000)">
                    <g id="#ff3d00ff" fill="#FF3D00">
                        <path d="M7.18,0.283333333 C12.5666667,-0.19 18.01,-0.05 23.3566667,0.746666667 C24.6566667,0.92 25.8,1.94333333 26.08,3.23 C26.85,7.04333333 26.87,10.9766667 26.3866667,14.83 C26.2233333,15.9433333 26.2,17.1866667 25.4266667,18.0866667 C24.8433333,18.8133333 23.9433333,19.2133333 23.03,19.31 C16.6166667,20.2166667 10.08,20.2033333 3.66666667,19.3133333 C2.08,19.2266667 0.67,17.9566667 0.496666667,16.3666667 C-0.16,12.1833333 -0.163333333,7.89 0.483333333,3.70333333 C0.63,2.33333333 1.66666667,1.08 3.03666667,0.803333333 C4.40333333,0.53 5.79666667,0.426666667 7.18,0.283333333 L7.18,0.283333333 Z M10.6666667,5.32666667 L10.6666667,14.6666667 C13.34,13.1166667 16.01,11.56 18.6766667,9.99666667 C16.0066667,8.43666667 13.34,6.87666667 10.6666667,5.32666667 Z" id="Shape"></path>
                    </g>
                    <g id="#ffffffff" transform="translate(10.666667, 5.000000)" fill="#FFFFFF">
                        <path d="M0,0.326666667 C2.67333333,1.87666667 5.34,3.43666667 8.01,4.99666667 C5.34333333,6.56 2.67333333,8.11666667 0,9.66666667 L0,0.326666667 Z" id="Shape"></path>
                    </g>
                </g>
                <rect id="bound" x="0" y="0" width="32" height="32"></rect>
            </g>
        </g>
    </g>
</svg>